HIERARCHY
ROOT Hips
{
	OFFSET 0.00000 0.00000 0.00000
	CHANNELS 6 Xposition Yposition Zposition Zrotation Yrotation Xrotation 
	JOINT LHipJoint
	{
		OFFSET 0 0 0
		CHANNELS 3 Zrotation Yrotation Xrotation
		JOINT LeftUpLeg
		{
			OFFSET 3.13874 -1.57224 1.49786
			CHANNELS 3 Zrotation Yrotation Xrotation
			JOINT LeftLeg
			{
				OFFSET 2.10955 -5.79594 0.00000
				CHANNELS 3 Zrotation Yrotation Xrotation
				JOINT LeftFoot
				{
					OFFSET 2.41843 -6.64458 0.00000
					CHANNELS 3 Zrotation Yrotation Xrotation
					JOINT LeftToeBase
					{
						OFFSET 0.04713 -0.12948 1.66229
						CHANNELS 3 Zrotation Yrotation Xrotation
						End Site
						{
							OFFSET 0.00000 -0.00000 0.85167
						}
					}
				}
			}
		}
	}
	JOINT RHipJoint
	{
		OFFSET 0 0 0
		CHANNELS 3 Zrotation Yrotation Xrotation
		JOINT RightUpLeg
		{
			OFFSET -3.13988 -1.57224 1.49786
			CHANNELS 3 Zrotation Yrotation Xrotation
			JOINT RightLeg
			{
				OFFSET -2.15006 -5.90725 0.00000
				CHANNELS 3 Zrotation Yrotation Xrotation
				JOINT RightFoot
				{
					OFFSET -2.34496 -6.44273 0.00000
					CHANNELS 3 Zrotation Yrotation Xrotation
					JOINT RightToeBase
					{
						OFFSET -0.08699 -0.23900 1.55223
						CHANNELS 3 Zrotation Yrotation Xrotation
						End Site
						{
							OFFSET -0.00000 -0.00000 0.80281
						}
					}
				}
			}
		}
	}
	JOINT LowerBack
	{
		OFFSET 0 0 0
		CHANNELS 3 Zrotation Yrotation Xrotation
		JOINT Spine
		{
			OFFSET 0.01292 1.96517 -0.16495
			CHANNELS 3 Zrotation Yrotation Xrotation
			JOINT Spine1
			{
				OFFSET 0.02122 1.88666 0.19706
				CHANNELS 3 Zrotation Yrotation Xrotation
				JOINT Neck
				{
					OFFSET 0 0 0
					CHANNELS 3 Zrotation Yrotation Xrotation
					JOINT Neck1
					{
						OFFSET -0.01683 1.81591 0.07903
						CHANNELS 3 Zrotation Yrotation Xrotation
						JOINT Head
						{
							OFFSET 0.00815 1.74013 -0.47700
							CHANNELS 3 Zrotation Yrotation Xrotation
							End Site
							{
								OFFSET -0.00204 1.83225 -0.16933
							}
						}
					}
				}
				JOINT LeftShoulder
				{
					OFFSET 0 0 0
					CHANNELS 3 Zrotation Yrotation Xrotation
					JOINT LeftArm
					{
						OFFSET 3.38482 1.41533 0.19802
						CHANNELS 3 Zrotation Yrotation Xrotation
						JOINT LeftForeArm
						{
							OFFSET 4.32712 -0.00000 0.00000
							CHANNELS 3 Zrotation Yrotation Xrotation
							JOINT LeftHand
							{
								OFFSET 3.28587 -0.00000 -0.00000
								CHANNELS 3 Zrotation Yrotation Xrotation
								JOINT LeftFingerBase
								{
									OFFSET 0 0 0
									CHANNELS 3 Zrotation Yrotation Xrotation
									JOINT LeftHandIndex1
									{
										OFFSET 0.43316 -0.00000 -0.00000
										CHANNELS 3 Zrotation Yrotation Xrotation
										End Site
										{
											OFFSET 0.34922 -0.00000 -0.00000
										}
									}
								}
								JOINT LThumb
								{
									OFFSET 0 0 0
									CHANNELS 3 Zrotation Yrotation Xrotation
									End Site
									{
										OFFSET 0.35456 -0.00000 0.35456
									}
								}
							}
						}
					}
				}
				JOINT RightShoulder
				{
					OFFSET 0 0 0
					CHANNELS 3 Zrotation Yrotation Xrotation
					JOINT RightArm
					{
						OFFSET -3.09725 1.62858 -0.14144
						CHANNELS 3 Zrotation Yrotation Xrotation
						JOINT RightForeArm
						{
							OFFSET -4.29104 -0.00000 0.00000
							CHANNELS 3 Zrotation Yrotation Xrotation
							JOINT RightHand
							{
								OFFSET -3.22720 -0.00000 -0.00000
								CHANNELS 3 Zrotation Yrotation Xrotation
								JOINT RightFingerBase
								{
									OFFSET 0 0 0
									CHANNELS 3 Zrotation Yrotation Xrotation
									JOINT RightHandIndex1
									{
										OFFSET -0.54362 -0.00000 -0.00000
										CHANNELS 3 Zrotation Yrotation Xrotation
										End Site
										{
											OFFSET -0.43828 -0.00000 -0.00000
										}
									}
								}
								JOINT RThumb
								{
									OFFSET 0 0 0
									CHANNELS 3 Zrotation Yrotation Xrotation
									End Site
									{
										OFFSET -0.44497 -0.00000 0.44497
									}
								}
							}
						}
					}
				}
			}
		}
	}
}
MOTION
Frames: 7
Frame Time: 0.0190476
0.00 0.00 0.00 -96.8822 -61.4562 -267.0850 0.0000 0.0000 0.0000 -3.7708 -14.9912 4.2284 1.2114 6.9821 19.6622 0.9420 -13.5259 -18.4810 6.3833 -14.7898 -46.5014 0.0000 0.0000 0.0000 -1.3485 -2.4832 -49.7700 -2.7889 -10.3452 30.1018 -1.9814 -11.2566 -32.6185 -0.0072 -0.5485 1.5072 -7.6607 0.0362 22.8352 9.9721 -0.8752 -3.8968 16.3794 0.9915 -17.0911 -14.9509 -11.1348 -11.5534 11.6868 -19.2510 33.9986 3.7205 -9.3284 17.0531 -0.0000 0.0000 0.0000 -53.9137 -10.7467 42.9293 81.3629 -59.7162 -52.5272 -0.0000 -0.0000 18.8789 30.2584 16.2182 9.2542 -7.1250 0.0000 -0.0000 2.4484 48.5753 0.2160 -0.0000 0.0000 0.0000 37.4683 -30.0981 39.2947 -24.4265 35.6120 -7.9535 0.0000 -0.0000 -8.9129 -28.2750 -14.8345 7.8411 7.1250 -0.0000 -0.0000 -0.6850 -46.7167 0.0290
0.00 0.00 0.00 -93.2982 -61.4189 -269.7960 0.0000 0.0000 0.0000 -2.9285 -16.3661 2.8918 1.2591 7.1133 20.0514 0.9638 -13.0093 -18.5048 6.7509 -15.1185 -47.9257 0.0000 0.0000 0.0000 3.5300 -7.6650 -56.7972 -7.0774 -15.3967 49.1665 -0.9993 -14.1048 -28.6857 -1.0203 6.4260 -18.0256 -8.7368 0.3346 22.7447 9.2077 -0.8327 -4.0933 16.0727 1.1192 -17.2481 -14.5760 -11.2948 -11.7102 12.5403 -19.4397 32.6924 3.9606 -9.2235 16.5386 0.0000 0.0000 0.0000 -52.3262 -9.6846 45.3201 81.7189 -59.7393 -52.8346 -0.0000 -0.0000 18.3450 30.5823 16.5710 9.5673 -7.1250 0.0000 -0.0000 2.7299 49.0277 0.2714 0.0000 0.0000 0.0000 37.6238 -30.3464 40.2475 -24.7792 35.9774 -8.1598 0.0000 -0.0000 -8.9990 -27.7225 -14.5563 7.5239 7.1250 -0.0000 -0.0000 -0.1930 -46.3280 0.0063
0.00 0.00 0.00 -87.0791 -60.3776 -275.2980 0.0000 0.0000 0.0000 -0.6109 -18.0524 1.5551 1.2626 7.1227 20.0794 0.8171 -12.1807 -17.0806 7.2016 -15.4993 -49.6326 0.0000 0.0000 0.0000 9.8992 -12.7769 -62.4371 -14.7313 -19.3210 74.4259 -0.9500 -12.6504 -26.9484 -0.6641 5.2119 -14.5138 -9.0825 0.8054 23.4148 8.4528 -0.4002 -3.9432 15.1785 1.3244 -17.5392 -14.2366 -11.9813 -11.8938 12.4703 -19.4447 29.7649 3.8207 -9.0888 15.0972 0.0000 -0.0000 0.0000 -50.0853 -7.7462 48.3785 82.9808 -59.8130 -53.9250 -0.0000 -0.0000 16.8098 30.5249 16.5954 9.5592 -7.1250 0.0000 -0.0000 2.6701 49.0456 0.2666 0.0000 -0.0000 0.0000 37.9752 -30.8633 40.4850 -25.1926 36.4002 -8.4040 0.0000 -0.0000 -6.1882 -25.7444 -12.3564 5.8916 7.1250 -0.0000 -0.0000 1.3769 -43.6449 0.0461
0.00 0.00 0.00 -85.3351 -59.7176 -276.4860 0.0000 0.0000 0.0000 0.5194 -18.6522 0.6336 1.2845 7.1819 20.2553 0.7588 -11.9364 -16.5100 7.2488 -15.5379 -49.8093 0.0000 0.0000 0.0000 12.3106 -14.1776 -64.1229 -17.9970 -19.9035 84.1346 -6.8772 -35.1838 -66.3965 -0.5482 4.7435 -13.1783 -8.3881 0.8348 23.1024 8.2734 -0.1537 -3.8361 14.4084 1.3154 -17.2946 -14.5308 -12.2092 -11.8922 12.7663 -19.3969 28.4026 3.9787 -9.0396 14.5482 0.0000 -0.0000 0.0000 -49.4929 -7.1212 49.1021 83.1043 -59.8196 -54.0317 -0.0000 -0.0000 16.8378 30.8682 16.7062 9.7498 -7.1250 0.0000 -0.0000 2.9997 49.2292 0.3131 0.0000 -0.0000 0.0000 38.1994 -31.0625 39.8805 -25.4305 36.6408 -8.5455 0.0000 -0.0000 -6.4792 -25.3348 -12.6640 5.9258 7.1250 -0.0000 -0.0000 1.7908 -43.9338 0.0471
0.00 0.00 0.00 -83.8178 -59.2009 -277.2470 0.0000 0.0000 0.0000 1.4045 -19.3661 -0.5317 1.3273 7.2960 20.5952 0.7210 -11.6187 -16.0851 7.2244 -15.5180 -49.7182 0.0000 0.0000 0.0000 14.5614 -15.3595 -65.8600 -19.6628 -19.9973 89.0142 -38.6191 -41.4650 -120.0337 -0.7782 5.6322 -15.7209 -7.8170 0.8297 22.6093 8.2091 0.0262 -3.7718 13.8867 1.2995 -16.9851 -15.1381 -12.5685 -12.2302 13.1448 -19.6389 27.6695 4.1356 -9.1221 14.4735 -0.0000 0.0000 0.0000 -49.3024 -6.1128 49.5403 83.4057 -59.8350 -54.2923 -0.0000 -0.0000 17.1460 30.9722 16.5844 9.7212 -7.1250 0.0000 -0.0000 3.1164 49.1088 0.3161 -0.0000 0.0000 0.0000 38.1021 -31.0015 39.2691 -25.5534 36.7642 -8.6189 0.0000 -0.0000 -7.2120 -25.4127 -13.8941 6.5085 7.1250 -0.0000 -0.0000 1.8892 -45.2871 -0.0134
0.00 0.00 0.00 -81.8215 -58.4776 -276.4750 0.0000 0.0000 0.0000 2.8096 -22.2682 -3.4466 1.4450 7.5992 21.5032 0.7896 -10.3748 -16.3858 6.4099 -14.8142 -46.6056 0.0000 0.0000 0.0000 20.1721 -15.8561 -70.2314 -13.6461 -19.0032 71.1208 -39.4574 5.2797 163.1557 -1.7670 8.3630 -23.8221 -6.4897 1.0499 20.7867 7.7490 0.7346 -4.0220 12.2357 1.4234 -16.4098 -14.7238 -12.9967 -13.4829 13.2377 -19.8722 26.6260 3.9664 -9.0656 14.2895 0.0000 0.0000 0.0000 -48.7927 -2.2183 50.1753 88.0122 -59.9851 -58.2786 -0.0000 -0.0000 17.6865 30.2983 17.2272 9.8179 -7.1250 0.0000 -0.0000 2.3689 49.7195 0.2758 0.0000 0.0000 0.0000 38.5302 -30.0964 37.1103 -24.8129 36.0121 -8.1796 0.0000 -0.0000 -9.6497 -27.0270 -14.4864 7.2720 7.1250 -0.0000 -0.0000 0.4570 -46.1535 -0.0130
0.00 0.00 0.00 -101.3700 -60.1859 -260.9150 0.0000 0.0000 0.0000 -2.8962 -19.2612 3.3339 1.7664 8.3615 23.8176 1.7821 -8.8209 -23.9284 6.9726 -15.3087 -48.7704 0.0000 0.0000 0.0000 13.3528 0.4660 -71.5238 -17.1990 -19.8108 81.7855 -41.4629 -20.8571 -173.4947 -1.8970 8.6482 -24.7010 -6.7813 2.5334 21.8859 6.8372 2.4634 -2.5646 10.6176 2.0532 -15.6568 -11.0237 -10.5764 -12.1033 13.3895 -19.1005 31.5696 3.8043 -8.5480 15.6756 0.0000 0.0000 0.0000 -34.5642 -4.3972 43.2372 110.4368 -58.3615 -77.6014 -0.0000 -0.0000 12.5184 28.5865 16.9285 9.0158 -7.1250 0.0000 -0.0000 0.7062 49.0958 0.0713 0.0000 0.0000 0.0000 43.9238 -27.5381 42.9175 -27.5403 38.6896 -9.8350 0.0000 -0.0000 -6.3908 -26.8047 -15.0380 7.4683 7.1250 -0.0000 -0.0000 0.7447 -46.7304 -0.0318
